<svg width="150" height="153" viewBox="0 0 150 153" fill="none" xmlns="http://www.w3.org/2000/svg">
<path d="M123.161 119.433C110.208 117.824 100.813 107.621 102.177 96.6446C103.54 85.6682 115.146 78.0744 128.099 79.6835C141.052 81.2925 150.448 91.4951 149.084 102.472C147.721 113.448 136.115 121.042 123.161 119.433Z" fill="#FFD68F"/>
<path d="M127.885 73.2737C114.978 75.2193 103.179 67.9302 101.53 56.993C99.8812 46.0557 109.008 35.612 121.915 33.6663C134.821 31.7207 146.621 39.0098 148.27 49.947C149.919 60.8843 140.792 71.328 127.885 73.2737Z" fill="#FFD68F"/>
<path d="M103.149 30.7562C94.9877 37.3881 83.8162 37.1582 78.1963 30.2426C72.5764 23.327 74.6363 12.3446 82.7972 5.71269C90.9581 -0.919233 102.13 -0.689281 107.75 6.2263C113.37 13.1419 111.31 24.1243 103.149 30.7562Z" fill="#FFD68F"/>
<path d="M92.0908 151.865C81.6912 148.723 75.4191 139.032 78.0815 130.22C80.7439 121.407 91.3328 116.81 101.732 119.952C112.132 123.094 118.404 132.785 115.742 141.597C113.079 150.41 102.49 155.007 92.0908 151.865Z" fill="#FFD68F"/>
<path d="M62.2944 128.113C39.5217 141.573 7.95234 122.314 1.57159 98.743C-4.80916 75.1715 13.0424 43.1416 39.1877 42.753C68.1753 44.1807 93.5298 48.5513 99.9105 72.1227C106.291 95.6942 89.5193 112.021 62.2944 128.113Z" fill="#FFD68F"/>
</svg>
